<svg clip-rule="evenodd" fill-rule="evenodd" height="512" image-rendering="optimizeQuality" shape-rendering="geometricPrecision" text-rendering="geometricPrecision" viewBox="0 0 1707 1707" width="512" xmlns="http://www.w3.org/2000/svg"><g id="Layer_x0020_1"><g id="_557813200"><path d="m1607 1521h-726c-54 0-98-44-98-98v-484c0-14 11-25 25-25l604-343c0-14 11-25 25-25h171c54 0 98 45 98 99v776c-1 56-45 100-99 100z" fill="#2f4054"/><path d="m1548 1446h-610c-47 0-86-39-86-86v-456c0-14 11-25 25-25 51-24 517-259 519-259h154c47 0 86 38 86 86v653c0 48-39 87-88 87z" fill="#222f3d"/><path d="m1098 1233c-45 0-92-5-124-35-19-18-29-44-29-76v-261c0-14 11-25 25-25l172-80c14 0 25 11 25 25v224l195-43c7-1 16 0 21 4 6 5 10 11 10 20v173c0 11-8 21-19 24l-225 48c-2 0-3 0-6 0-7 0-14 0-21 0-8 2-16 2-24 2z" fill="#c9d9e5"/><path d="m701 947c-7-11 1 19 14 12 4-2-14-19-9-21l-2-241v-2l27-11 684-256c0-12 8-22 21-25 14-1 25 7 28 21 9 72 14 201-71 254-94 58-216 114-345 173-107 49-246 101-339 153-14-8-1-44-8-57z" fill="#abb7c1"/><path d="m694 733c-10 0-19-5-22-15-4-12 1-26 14-32l-598-306c-14 2-26-7-28-20-3-14 7-26 20-27l902-147h5 339c39 0 71 13 95 41 53 77 42 201 43 203l-738 266c-3 1-29 37-32 37z" fill="#d8e6ee"/><path d="m235 744h-57c-8 0-17-4-21-12l-147-250c-1-1-1-2-1-4-2-3-24-64 10-109 20-30 55-42 105-42h3l395 43h1c49 0 114 111 196 330 4 13-1 26-14 32-12 4-399 12-470 12z" fill="#091331"/><path d="m700 1005c-2 0-2 0-3 0l-465-58c-12-1-21-13-21-24v-466c0-7 3-13 9-18 5-4 12-7 19-5l385 47 102 215v284c0 7-3 14-8 18-6 6-11 7-18 7z" fill="#262d43"/><path d="m632 904c-2 0-2 0-3 0l-301-35c-13-1-21-11-21-23v-287c0-7 3-14 8-18 6-5 13-7 20-6l301 36c12 1 21 13 21 24v284c0 7-3 14-9 18-5 4-11 7-16 7z" fill="#2f4054"/><path d="m480 805c-43 0-77-38-77-86 0-47 34-85 77-85s78 38 78 85c1 48-35 86-78 86z" fill="#37a3c8"/><path d="m480 682c-16 0-29 17-29 37 0 21 14 38 29 38 16 0 29-17 29-38 0-20-12-37-29-37z" fill="#2d80b8"/><path d="m460 682c-5 0-9 5-9 11s4 11 9 11 9-5 9-11-4-11-9-11z" fill="#bcd7e9"/></g></g></svg>