<svg id="Capa_1" enable-background="new 0 0 512 512" height="512" viewBox="0 0 512 512" width="512" xmlns="http://www.w3.org/2000/svg"><g><path d="m409.19 15 27.715 81.78-27.715 93.85c-48.5 0-87.82-39.32-87.82-87.82 0-48.49 39.32-87.81 87.82-87.81z" fill="#00cf6b"/><path d="m497 102.81c0 48.5-39.32 87.82-87.81 87.82v-175.63c48.49 0 87.81 39.32 87.81 87.81z" fill="#00aa8d"/><path d="m138 63 80.948 142.627-80.948 228.373h-86.98c-21 0-38.02-17.02-38.02-38.02v-332.98z" fill="#e6e9f2"/><path d="m263 63v332.98c0 21-17.02 38.02-38.02 38.02h-86.98v-371z" fill="#cfd7e6"/><g><path d="m409.19 30 14.96-13.725-14.96-16.275c-56.7 0-102.82 46.12-102.82 102.81 0 56.7 46.12 102.82 102.82 102.82l25.642-17.343-25.642-12.657c-40.15 0-72.82-32.67-72.82-72.82s32.67-72.81 72.82-72.81z" fill="#6fe557"/></g><g><path d="m138 361 15 15-15 15h-30.5c-8.28 0-15-6.72-15-15s6.72-15 15-15z" fill="#6e6e86"/></g><g><path d="m138 110 7.5 22.287-7.5 33.713c-8.28 0-15-6.72-15-15v-26c0-8.28 6.72-15 15-15z" fill="#ffc34d"/></g><g><path d="m368.22 512h-189.94c-30.206 0-54.78-24.574-54.78-54.78v-21.22c0-8.284 6.716-15 15-15s15 6.716 15 15v21.22c0 13.664 11.116 24.78 24.78 24.78h189.94c13.664 0 24.78-11.116 24.78-24.78v-72.22c0-8.284 6.716-15 15-15s15 6.716 15 15v72.22c0 30.206-24.574 54.78-54.78 54.78z" fill="#cfd7e6"/></g><path d="m138 80 43.43-38.755-43.43-41.245h-90.06c-26.43 0-47.94 21.51-47.94 47.94v355.12c0 26.43 21.51 47.94 47.94 47.94h90.06l19.5-15-19.5-15h-90.06c-9.89 0-17.94-8.05-17.94-17.94v-323.06z" fill="#6e6e86"/><g><path d="m379.186 318c-8.284 0-15-6.716-15-15v-50c0-8.284 6.716-15 15-15s15 6.716 15 15v50c0 8.284-6.716 15-15 15z" fill="#6e6e86"/></g><g><path d="m439.186 318c-8.284 0-15-6.716-15-15v-50c0-8.284 6.716-15 15-15s15 6.716 15 15v50c0 8.284-6.716 15-15 15z" fill="#515165"/></g><g><path d="m409.19 288 32.5 60.389-32.5 49.611h-24.64c-22.25 0-40.36-18.11-40.36-40.36v-54.64c0-8.28 6.72-15 15-15z" fill="#9af"/></g><path d="m183.5 376c0 8.28-6.72 15-15 15h-30.5v-30h30.5c8.28 0 15 6.72 15 15z" fill="#515165"/><path d="m276 47.94v355.12c0 26.43-21.51 47.94-47.94 47.94h-90.06v-30h90.06c9.89 0 17.94-8.05 17.94-17.94v-323.06h-108v-80h90.06c26.43 0 47.94 21.51 47.94 47.94z" fill="#515165"/><path d="m153 125v26c0 8.28-6.72 15-15 15v-56c8.28 0 15 6.72 15 15z" fill="#ffa64d"/><g><path d="m138 136 38.196 102-38.196 92h-48.5c-8.28 0-15-6.72-15-15v-164c0-8.28 6.72-15 15-15z" fill="#6fe557"/></g><path d="m201.5 151v164c0 8.28-6.72 15-15 15h-48.5v-194h48.5c8.28 0 15 6.72 15 15z" fill="#00cf6b"/><path d="m474.19 303v54.64c0 22.25-18.11 40.36-40.36 40.36h-24.64v-110h50c8.28 0 15 6.72 15 15z" fill="#8080ff"/><path d="m512 102.81c0 56.7-46.12 102.82-102.81 102.82v-30c40.15 0 72.81-32.67 72.81-72.82s-32.66-72.81-72.81-72.81v-30c56.69 0 102.81 46.12 102.81 102.81z" fill="#00cf6b"/><g><path d="m409.19 95.37 10.339 15.638-10.339 26.342c-2.48 1.61-5.33 2.42-8.18 2.42-3.84 0-7.68-1.47-10.61-4.4l-20.23-20.23c-5.86-5.86-5.86-15.36 0-21.22 5.85-5.86 15.35-5.86 21.21 0l9.63 9.63z" fill="#e6e9f2"/></g><path d="m446.25 100.74-34.63 34.63c-.75.76-1.57 1.42-2.43 1.98v-41.98l15.85-15.85c5.86-5.86 15.36-5.86 21.21 0 5.86 5.86 5.86 15.36 0 21.22z" fill="#cfd7e6"/></g></svg>