<svg id="flat" height="512" viewBox="0 0 512 512" width="512" xmlns="http://www.w3.org/2000/svg"><path d="m296 456h-80l3.2-48 2.13-32 2.67-40h64l2.67 40 2.13 32z" fill="#5a9099"/><path d="m292.8 408-2.13-32-2.67-40h-16l2.67 40 2.13 32 3.2 48h16z" fill="#385a5f"/><circle cx="256" cy="184" fill="#87d7e5" r="160"/><path d="m256 24c-2.683 0-5.35.069-8 .199 84.648 4.169 152 74.118 152 159.801s-67.352 155.632-152 159.801c2.65.13 5.317.199 8 .199 88.365 0 160-71.635 160-160 0-88.366-71.635-160-160-160z" fill="#64a0aa"/><circle cx="256" cy="184" fill="#5a9099" r="104"/><g fill="#f8d371"><path d="m304.433 147.675-48.433 36.325v-128h17.875c32.14 0 56.245 29.404 49.942 60.919-2.458 12.288-9.359 23.238-19.384 30.756z"/><path d="m207.567 220.325 48.433-36.325v128h-17.875c-32.14 0-56.245-29.404-49.942-60.919 2.458-12.288 9.359-23.238 19.384-30.756z"/><path d="m219.675 135.567 36.325 48.433h-128v-17.875c0-32.14 29.404-56.245 60.919-49.942 12.288 2.458 23.238 9.359 30.756 19.384z"/><path d="m292.325 232.433-36.325-48.433h128v17.875c0 32.14-29.404 56.245-60.919 49.942-12.288-2.458-23.238-9.359-30.756-19.384z"/></g><circle cx="256" cy="184" fill="#de6b66" r="32"/><path d="m368 488h-224v-28.947c0-19.359 15.694-35.053 35.053-35.053h153.893c19.36 0 35.054 15.694 35.054 35.053z" fill="#87d7e5"/><path d="m332.947 424h-16c19.359 0 35.053 15.694 35.053 35.053v28.947h16v-28.947c0-19.359-15.694-35.053-35.053-35.053z" fill="#69a7b2"/><g><path d="m192 464h-16c-4.418 0-8-3.582-8-8s3.582-8 8-8h16c4.418 0 8 3.582 8 8s-3.582 8-8 8z" fill="#f8d371"/></g><g><path d="m232 464h-16c-4.418 0-8-3.582-8-8s3.582-8 8-8h16c4.418 0 8 3.582 8 8s-3.582 8-8 8z" fill="#f8d371"/></g><g><path d="m272 464h-16c-4.418 0-8-3.582-8-8s3.582-8 8-8h16c4.418 0 8 3.582 8 8s-3.582 8-8 8z" fill="#f8d371"/></g><circle cx="320" cy="456" fill="#de6b66" r="16"/><g><path d="m472 88h-64c-4.418 0-8-3.582-8-8s3.582-8 8-8h64c4.411 0 8-3.589 8-8s-3.589-8-8-8h-16c-4.418 0-8-3.582-8-8s3.582-8 8-8h16c13.233 0 24 10.767 24 24s-10.767 24-24 24z" fill="#36565b"/></g><g><path d="m104 88h-64c-13.233 0-24-10.767-24-24s10.767-24 24-24h16c4.418 0 8 3.582 8 8s-3.582 8-8 8h-16c-4.411 0-8 3.589-8 8s3.589 8 8 8h64c4.418 0 8 3.582 8 8s-3.582 8-8 8z" fill="#36565b"/></g><g><path d="m48 152h-8c-13.233 0-24-10.767-24-24s10.767-24 24-24h40c4.418 0 8 3.582 8 8s-3.582 8-8 8h-40c-4.411 0-8 3.589-8 8s3.589 8 8 8h8c4.418 0 8 3.582 8 8s-3.582 8-8 8z" fill="#36565b"/></g><g><path d="m472 152h-8c-4.418 0-8-3.582-8-8s3.582-8 8-8h8c4.411 0 8-3.589 8-8s-3.589-8-8-8h-40c-4.418 0-8-3.582-8-8s3.582-8 8-8h40c13.233 0 24 10.767 24 24s-10.767 24-24 24z" fill="#36565b"/></g><g><path d="m472 328h-16c-4.418 0-8-3.582-8-8s3.582-8 8-8h16c4.411 0 8-3.589 8-8s-3.589-8-8-8h-64c-4.418 0-8-3.582-8-8s3.582-8 8-8h64c13.233 0 24 10.767 24 24s-10.767 24-24 24z" fill="#36565b"/></g><g><path d="m56 328h-16c-13.233 0-24-10.767-24-24s10.767-24 24-24h64c4.418 0 8 3.582 8 8s-3.582 8-8 8h-64c-4.411 0-8 3.589-8 8s3.589 8 8 8h16c4.418 0 8 3.582 8 8s-3.582 8-8 8z" fill="#36565b"/></g><g><path d="m80 264h-40c-13.233 0-24-10.767-24-24s10.767-24 24-24h8c4.418 0 8 3.582 8 8s-3.582 8-8 8h-8c-4.411 0-8 3.589-8 8s3.589 8 8 8h40c4.418 0 8 3.582 8 8s-3.582 8-8 8z" fill="#36565b"/></g><g><path d="m472 264h-40c-4.418 0-8-3.582-8-8s3.582-8 8-8h40c4.411 0 8-3.589 8-8s-3.589-8-8-8h-8c-4.418 0-8-3.582-8-8s3.582-8 8-8h8c13.233 0 24 10.767 24 24s-10.767 24-24 24z" fill="#36565b"/></g></svg>