<svg id="Capa_1" enable-background="new 0 0 511.336 511.336" height="512" viewBox="0 0 511.336 511.336" width="512" xmlns="http://www.w3.org/2000/svg"><g id="XMLID_44_"><path id="XMLID_66_" d="m274.767 76.688 15 178.98-15 135.52c-65.38 0-118.57-53.19-118.57-118.57 0-26.91 18.37-66.23 54.59-116.87 26.06-36.43 51.7-65.29 52.78-66.5z" fill="#ace233"/><g fill="#00da80"><path id="XMLID_82_" d="m393.336 272.618c0 65.38-53.19 118.57-118.57 118.57v-314.5l11.2 12.56c1.08 1.21 26.72 30.07 52.78 66.5 36.22 50.64 54.59 89.96 54.59 116.87z"/><path id="XMLID_79_" d="m274.767 19.098v30c-113.9 0-206.57 92.67-206.57 206.57h-30c0-63.19 24.61-122.6 69.29-167.28s104.09-69.29 167.28-69.29z"/><path id="XMLID_81_" d="m259.767 195.388h15l10.79 98.308-10.79 198.542h-15v-188.17l-49.361-40.62 19.06-23.17 30.301 24.94z"/></g><path id="XMLID_78_" d="m511.336 255.668c0 63.19-24.61 122.6-69.29 167.28s-104.09 69.29-167.28 69.29v-296.85h15v70.26l30.42-24.5 18.82 23.37-49.24 39.65v157.53c106.92-7.72 191.57-97.18 191.57-206.03 0-113.9-92.67-206.57-206.57-206.57v-30c63.19 0 122.6 24.61 167.28 69.29 44.681 44.68 69.29 104.09 69.29 167.28z" fill="#00a78e"/><g id="XMLID_45_"><path id="XMLID_567_" d="m30 380.121h-30v-33.398l30-11z" fill="#54696e"/></g><g id="XMLID_46_"><path id="XMLID_566_" d="m106.402 380.121h-30v-44.398l30 11z" fill="#54696e"/></g><path id="XMLID_574_" d="m53.201 240.668c-29.335 0-53.201 23.866-53.201 53.201v52.854h106.402v-52.854c0-29.335-23.866-53.201-53.201-53.201z" fill="#b1d5f1"/></g></svg>