<svg id="Layer_1" enable-background="new 0 0 512 512" viewBox="0 0 512 512" xmlns="http://www.w3.org/2000/svg"><g clip-rule="evenodd" fill-rule="evenodd"><path d="m145.628 23.447 19.334 33.488-72.598 41.915-19.695-34.112c-3.779-6.546-2.098-14.779 3.945-19.318 15.849-11.906 32.315-20.44 50.245-28.186 6.962-3.008 14.977-.355 18.769 6.213z" fill="#e4e8eb"/><path d="m31.672 145.989h448.656c6.782 0 12.313 5.531 12.313 12.313v49.251c0 6.782-5.531 12.312-12.313 12.312h-448.656c-6.782 0-12.312-5.531-12.312-12.312v-49.251c-.001-6.782 5.53-12.313 12.312-12.313z" fill="#cad0d7"/><path d="m332.67 419.494h58.132v60.358c0 8.893-7.254 16.148-16.148 16.148h-25.837c-8.894 0-16.148-7.254-16.148-16.148v-60.358zm-211.472 0h58.132v60.358c0 8.893-7.254 16.148-16.148 16.148h-25.837c-8.894 0-16.148-7.254-16.148-16.148v-60.358z" fill="#cad0d7"/><path d="m455.159 107.949v298.757c0 31.326-25.621 56.947-56.946 56.947h-284.426c-31.325 0-56.946-25.621-56.946-56.947v-298.757l.314-.56c16.147-28.845 46.138-49.529 75.76-62.679 38.17-16.944 81.474-24.401 123.085-24.401s84.915 7.458 123.085 24.401c29.622 13.15 59.613 33.834 75.76 62.679zm-348.353-1.82h298.388c-15.816-14.934-37.387-25.377-57.57-32.173-29.168-9.821-60.912-14.087-91.624-14.087s-62.456 4.266-91.623 14.087c-20.184 6.796-41.755 17.239-57.571 32.173z" fill="#f4f6f8"/><path d="m455.159 107.949v38.04h-398.318v-38.04l.314-.56c16.147-28.845 46.138-49.529 75.76-62.679 38.17-16.944 81.474-24.401 123.085-24.401s84.915 7.458 123.085 24.401c29.622 13.15 59.613 33.834 75.76 62.679zm-348.353-1.82h298.388c-15.816-14.934-37.387-25.377-57.57-32.173-29.168-9.821-60.912-14.087-91.624-14.087s-62.456 4.266-91.623 14.087c-20.184 6.796-41.755 17.239-57.571 32.173z" fill="#66d4f1"/><path d="m318.795 463.653h-125.59v-149.295c0-20.345 16.593-36.938 36.938-36.938h51.714c20.345 0 36.938 16.593 36.938 36.938z" fill="#66d4f1"/><circle cx="256.001" cy="321.794" fill="#f76c82" r="10.846"/><circle cx="256.001" cy="368.63" fill="#fdcd56" r="10.846"/><path d="m240.991 422.477c-3.866 0-7-3.134-7-7s3.134-7 7-7h30.019c3.866 0 7 3.134 7 7s-3.134 7-7 7z" fill="#cad0d7"/><path d="m56.841 177.37h398.319v14h-398.319z" fill="#66d4f1"/></g></svg>