<svg id="Capa_1" enable-background="new 0 0 512 512" height="512" viewBox="0 0 512 512" width="512" xmlns="http://www.w3.org/2000/svg"><g><path d="m351.939 416-20.604-176 20.604-176c17.675 0 32.004 14.329 32.004 32.004v287.992c0 17.675-14.329 32.004-32.004 32.004z" fill="#3b4854"/><path d="m159.941 416c-17.675 0-32.004-14.329-32.004-32.004v-287.992c0-17.675 14.329-32.004 32.004-32.004l20.604 176z" fill="#2a343e"/><path d="m351.943 480-181.702 10.302v-458.366c0-17.638 14.298-30.906 31.936-30.906l21.696-1.03h96.134c17.638 0 31.936 14.298 31.936 31.936z" fill="#616d79"/><path d="m223.873 0h-31.998c-17.638 0-31.936 14.298-31.936 31.936v448.064l31.998 10.302v-458.366c0-17.638 14.298-31.936 31.936-31.936z" fill="#3b4854"/><path d="m312.728 448h-89.883l-20.604-10.302v-390.245c0-8.534 6.918-15.133 15.453-15.133l20.604-.32h66.189c8.534 0 15.453 6.918 15.453 15.453v393.336c-.001 3.982-3.23 7.211-7.212 7.211z" fill="#3edcff"/><path d="m238.298 32h-30.906c-8.534 0-15.453 6.918-15.453 15.453v393.336c0 3.983 3.229 7.211 7.211 7.211h23.694v-400.547c.001-8.534 6.919-15.453 15.454-15.453z" fill="#00c1ee"/><circle cx="239.939" cy="80" fill="#ff7056" r="16"/><circle cx="239.939" cy="208" fill="#ffd152" r="16"/><circle cx="239.939" cy="272" fill="#ffd152" r="16"/><circle cx="239.939" cy="144" fill="#ff7056" r="16"/><g><path d="m239.939 423.726c-4.267 0-7.726-3.459-7.726-7.726v-96c0-4.267 3.459-7.726 7.726-7.726s7.726 3.459 7.726 7.726v96c0 4.267-3.459 7.726-7.726 7.726z" fill="#26a6fe"/></g><path d="m388.271 512h-244.705l-13.288-16.075 29.661-15.925h219.543c2.731 0 5.228 1.543 6.45 3.986l8.789 17.577c2.397 4.795-1.089 10.437-6.45 10.437z" fill="#3b4854"/><path d="m126.303 483.927-8.994 17.577c-2.455 4.798 1.03 10.496 6.42 10.496h19.836l16.373-32h-27.216c-2.706 0-5.186 1.516-6.419 3.927z" fill="#2a343e"/></g></svg>