<svg id="Flat" height="512" viewBox="0 0 64 64" width="512" xmlns="http://www.w3.org/2000/svg"><g id="Color_copy"><g><path d="m3 3h58v14h-58z" fill="#656b76"/><g fill="#545a63"><circle cx="46" cy="11" r="2"/><circle cx="54" cy="11" r="2"/><path d="m3 3h11v14h-11z"/><circle cx="14" cy="11" r="3"/></g><g><path d="m3 17h58v44h-58z" fill="#e9f1f2"/><path d="m61 50v11h-58v-44h11v13c0 11.05 8.95 20 20 20z" fill="#d0d8da"/><path d="m9 25h46v32h-46z" fill="#a2bdcd"/><path d="m55 50v7h-46v-32h5v5c0 11.05 8.95 20 20 20z" fill="#769fb6"/></g><path d="m55 25h-46c-1.105 0-2-.895-2-2 0-1.105.895-2 2-2h46c1.105 0 2 .895 2 2 0 1.105-.895 2-2 2z" fill="#656b76"/><circle cx="14" cy="10" fill="#e9f1f2" r="3"/><circle cx="46" cy="10" fill="#e9f1f2" r="2"/><circle cx="54" cy="10" fill="#e9f1f2" r="2"/><path d="m26 3h14v10h-14z" fill="#a2bdcd"/><path d="m47 57h-30c-2.209 0-4-1.791-4-4h38c0 2.209-1.791 4-4 4z" fill="#b8bebf"/><path d="m40 13h-14v-10z" fill="#769fb6"/><path d="m57 23c0 .55-.22 1.05-.59 1.41-.36.37-.86.59-1.41.59h-46c-1.1 0-2-.9-2-2 0-.55.22-1.05.59-1.41.36-.37.86-.59 1.41-.59 0 1.1.9 2 2 2z" fill="#545a63"/><path d="m50.64 54.64c-.19.44-.47.85-.81 1.19-.73.72-1.73 1.17-2.83 1.17h-30c-2.21 0-4-1.79-4-4h2.54c.69 1.2 1.98 2 3.46 2h30c.58 0 1.14-.13 1.64-.36z" fill="#93999a"/><path d="m55.82 10.82c-.31.69-1.01 1.18-1.82 1.18-1.1 0-2-.9-2-2 0-.81.49-1.51 1.18-1.82-.12.25-.18.53-.18.82 0 1.1.9 2 2 2 .29 0 .57-.06.82-.18z" fill="#d0d8da"/><path d="m47.82 10.82c-.31.69-1.01 1.18-1.82 1.18-1.1 0-2-.9-2-2 0-.81.49-1.51 1.18-1.82-.12.25-.18.53-.18.82 0 1.1.9 2 2 2 .29 0 .57-.06.82-.18z" fill="#d0d8da"/><path d="m16.56 11.56c-.52.87-1.47 1.44-2.56 1.44-1.66 0-3-1.34-3-3 0-1.09.57-2.04 1.44-2.56-.28.45-.44.99-.44 1.56 0 1.66 1.34 3 3 3 .57 0 1.11-.16 1.56-.44z" fill="#d0d8da"/><g><path d="m43 53h-22l-4-10h30z" fill="#e9f1f2"/><path d="m30.96 50c-3.245 0-6.233-1.53-8.148-4.021.063.006.123.021.188.021.601 0 1.133-.27 1.5-.69.367.42.899.69 1.5.69s1.133-.27 1.5-.69c.367.42.899.69 1.5.69s1.133-.27 1.5-.69c.367.42.899.69 1.5.69s1.133-.27 1.5-.69c.367.42.899.69 1.5.69s1.133-.27 1.5-.69c.367.42.899.69 1.5.69s1.133-.27 1.5-.69c.367.42.899.69 1.5.69s1.133-.27 1.5-.69c.367.42.899.69 1.5.69s1.133-.27 1.5-.69c.124.142.273.259.431.362l1.069-2.672h-30l4 10h22l1.2-3z" fill="#d0d8da"/><path d="m37 33.394c-.756-.15-2.38.093-3.573.314-.945.175-1.909.175-2.854 0-1.193-.221-2.817-.463-3.573-.314-6.06 1.199-9.5 5.041-9.5 9.606h29c0-4.565-3.44-8.407-9.5-9.606z" fill="#f9cdae"/><path d="m38 39c-7.097 0-12.946-2.076-13.861-4.766-4.266 1.696-6.639 4.98-6.639 8.766h29c0-1.724-.492-3.344-1.429-4.759-2.077.479-4.488.759-7.071.759z" fill="#f6b98d"/><path d="m47.444 41.049c-.779-.17-1.489.121-1.944.641-.367-.42-.899-.69-1.5-.69s-1.133.27-1.5.69c-.367-.42-.899-.69-1.5-.69s-1.133.27-1.5.69c-.367-.42-.899-.69-1.5-.69s-1.133.27-1.5.69c-.367-.42-.899-.69-1.5-.69s-1.133.27-1.5.69c-.367-.42-.899-.69-1.5-.69s-1.133.27-1.5.69c-.367-.42-.899-.69-1.5-.69s-1.133.27-1.5.69c-.367-.42-.899-.69-1.5-.69s-1.133.27-1.5.69c-.367-.42-.899-.69-1.5-.69s-1.133.27-1.5.69c-.367-.42-.899-.69-1.5-.69s-1.133.27-1.5.69c-.455-.52-1.165-.811-1.944-.641-.752.164-1.369.793-1.517 1.549-.249 1.28.725 2.402 1.961 2.402.601 0 1.133-.27 1.5-.69.367.42.899.69 1.5.69s1.133-.27 1.5-.69c.367.42.899.69 1.5.69s1.133-.27 1.5-.69c.367.42.899.69 1.5.69s1.133-.27 1.5-.69c.367.42.899.69 1.5.69s1.133-.27 1.5-.69c.367.42.899.69 1.5.69s1.133-.27 1.5-.69c.367.42.899.69 1.5.69s1.133-.27 1.5-.69c.367.42.899.69 1.5.69s1.133-.27 1.5-.69c.367.42.899.69 1.5.69s1.133-.27 1.5-.69c.367.42.899.69 1.5.69s1.133-.27 1.5-.69c.367.42.899.69 1.5.69 1.236 0 2.21-1.122 1.961-2.403-.148-.756-.765-1.384-1.517-1.548z" fill="#f3a268"/><path d="m48.723 42c-.346.595-.985 1-1.723 1-.601 0-1.133-.27-1.5-.69-.367.42-.899.69-1.5.69s-1.133-.27-1.5-.69c-.367.42-.899.69-1.5.69s-1.133-.27-1.5-.69c-.367.42-.899.69-1.5.69s-1.133-.27-1.5-.69c-.367.42-.899.69-1.5.69s-1.133-.27-1.5-.69c-.367.42-.899.69-1.5.69s-1.133-.27-1.5-.69c-.367.42-.899.69-1.5.69s-1.133-.27-1.5-.69c-.367.42-.899.69-1.5.69s-1.133-.27-1.5-.69c-.367.42-.899.69-1.5.69s-1.133-.27-1.5-.69c-.367.42-.899.69-1.5.69s-1.133-.27-1.5-.69c-.367.42-.899.69-1.5.69-.738 0-1.377-.405-1.723-1-.109.186-.196.384-.237.597-.25 1.281.724 2.403 1.96 2.403.601 0 1.133-.27 1.5-.69.367.42.899.69 1.5.69s1.133-.27 1.5-.69c.367.42.899.69 1.5.69s1.133-.27 1.5-.69c.367.42.899.69 1.5.69s1.133-.27 1.5-.69c.367.42.899.69 1.5.69s1.133-.27 1.5-.69c.367.42.899.69 1.5.69s1.133-.27 1.5-.69c.367.42.899.69 1.5.69s1.133-.27 1.5-.69c.367.42.899.69 1.5.69s1.133-.27 1.5-.69c.367.42.899.69 1.5.69s1.133-.27 1.5-.69c.367.42.899.69 1.5.69s1.133-.27 1.5-.69c.367.42.899.69 1.5.69 1.236 0 2.21-1.122 1.961-2.403-.042-.213-.129-.412-.238-.597z" fill="#ef9050"/><circle cx="32" cy="37" fill="#ef9050" r="1"/><circle cx="36" cy="37" fill="#ef9050" r="1"/><circle cx="28" cy="37" fill="#ef9050" r="1"/><path d="m46.251 34.63c-.146 0-.294-.033-.434-.103-.579-.29-.987-.845-1.09-1.483s.108-1.293.565-1.751c-.494-.247-.697-.863-.45-1.357.248-.494.845-.708 1.339-.463.579.29.987.845 1.09 1.483s-.108 1.293-.565 1.751c.494.247.697.863.45 1.357-.177.355-.534.566-.905.566z" fill="#d0d8da"/><path d="m41.251 32.63c-.146 0-.294-.033-.434-.103-.579-.29-.987-.845-1.09-1.483s.108-1.293.565-1.751c-.494-.247-.697-.863-.45-1.357s.844-.709 1.339-.463c.579.29.987.845 1.09 1.483s-.108 1.293-.565 1.751c.494.247.697.863.45 1.357-.177.355-.534.566-.905.566z" fill="#d0d8da"/><path d="m22.251 32.63c-.146 0-.294-.033-.434-.103-.579-.29-.987-.845-1.09-1.483s.108-1.293.565-1.751c-.494-.247-.697-.863-.45-1.357.248-.494.845-.709 1.339-.463.579.29.987.845 1.09 1.483s-.108 1.293-.565 1.751c.494.247.697.863.45 1.357-.177.355-.534.566-.905.566z" fill="#d0d8da"/><path d="m17.251 35.63c-.146 0-.294-.033-.434-.103-.579-.29-.987-.845-1.09-1.483s.108-1.293.565-1.751c-.494-.247-.697-.863-.45-1.357s.846-.709 1.339-.463c.579.29.987.845 1.09 1.483s-.108 1.293-.565 1.751c.494.247.697.863.45 1.357-.177.355-.534.566-.905.566z" fill="#d0d8da"/><path d="m32 49c-.552 0-1 .447-1 1v3h2v-3c0-.553-.448-1-1-1z" fill="#b8bebf"/><path d="m36.243 49.03c-.534-.133-1.079.19-1.213.728l-.811 3.242h2.062l.689-2.758c.134-.535-.192-1.078-.727-1.212z" fill="#b8bebf"/><path d="m40.243 49.03c-.534-.133-1.079.19-1.213.728l-.811 3.242h2.062l.689-2.758c.134-.535-.192-1.078-.727-1.212z" fill="#b8bebf"/><path d="m27.757 49.03c-.536.134-.861.677-.728 1.212l.69 2.758h2.062l-.811-3.242c-.134-.537-.677-.861-1.213-.728z" fill="#b8bebf"/><g fill="#93999a"><path d="m23.757 49.03c-.536.134-.861.677-.728 1.212l.69 2.758h2.062l-.811-3.242c-.134-.537-.676-.861-1.213-.728z"/><path d="m31 50h2v3h-2z"/><path d="m36.281 53 .689-2.758c.02-.082.011-.162.011-.242h-2.012l-.75 3z"/><path d="m40.281 53 .689-2.758c.02-.082.011-.162.011-.242h-2.012l-.75 3z"/><path d="m27.03 50.242.689 2.758h2.062l-.802-3.209c-.577-.114-1.14-.269-1.682-.477-.233.24-.354.58-.267.928z"/></g></g><circle cx="21" cy="10" fill="#e9f1f2" r="1"/><circle cx="7" cy="10" fill="#d0d8da" r="1"/></g></g></svg>