<?xml version="1.0" encoding="iso-8859-1"?>
<!-- Generator: Adobe Illustrator 19.0.0, SVG Export Plug-In . SVG Version: 6.00 Build 0)  -->
<svg version="1.1" id="Layer_1" xmlns="http://www.w3.org/2000/svg" xmlns:xlink="http://www.w3.org/1999/xlink" x="0px" y="0px"
	 viewBox="0 0 512 512" style="enable-background:new 0 0 512 512;" xml:space="preserve">
<path style="fill:#232575;" d="M480.827,96.595H31.173c-5.217,0-9.446,4.229-9.446,9.446v24.561c0,5.217,4.23,9.447,9.446,9.447
	h449.653c5.217,0,9.447-4.229,9.447-9.447v-24.561C490.273,100.824,486.043,96.595,480.827,96.595z"/>
<g>
	<path style="fill:#6A8092;" d="M256,96.595H31.173c-5.217,0-9.446,4.229-9.446,9.446v24.561c0,5.217,4.23,9.447,9.446,9.447H256
		V96.595z"/>
	<path style="fill:#6A8092;" d="M497.83,26.691H14.17C6.344,26.691,0,33.035,0,40.861v47.232c0,7.826,6.344,14.17,14.17,14.17
		h483.66c7.826,0,14.17-6.344,14.17-14.17V40.861C512,33.035,505.656,26.691,497.83,26.691z"/>
</g>
<g>
	<path style="fill:#9EACBA;" d="M256,26.691H14.17C6.344,26.691,0,33.035,0,40.861v47.232c0,7.826,6.344,14.17,14.17,14.17H256
		V26.691z"/>
	<path style="fill:#9EACBA;" d="M497.83,118.263H14.17c-7.826,0-14.17,6.344-14.17,14.17v129.402c0,7.826,6.344,14.17,14.17,14.17
		h483.66c7.826,0,14.17-6.344,14.17-14.17V132.434C512,124.607,505.656,118.263,497.83,118.263z"/>
</g>
<path style="fill:#BDCFDF;" d="M256,118.263H14.17c-7.826,0-14.17,6.344-14.17,14.17v129.402c0,7.826,6.344,14.17,14.17,14.17H256
	V118.263z"/>
<path style="fill:#FFDB58;" d="M78,172.049H48c-5.522,0-10,4.477-10,10s4.478,10,10,10h30c5.522,0,10-4.477,10-10
	S83.522,172.049,78,172.049z"/>
<g>
	<path style="fill:#232575;" d="M400,216.049h-30c-8.284,0-15,6.716-15,15s6.716,15,15,15h30c8.284,0,15-6.716,15-15
		S408.284,216.049,400,216.049z"/>
	<path style="fill:#232575;" d="M142,216.049h-30c-8.284,0-15,6.716-15,15s6.716,15,15,15h30c8.284,0,15-6.716,15-15
		S150.284,216.049,142,216.049z"/>
</g>
<path style="fill:#D9150B;" d="M487.105,438.43l-34.622-156.824c-4.224-19.129-15.643-35.468-32.155-46.008
	c-16.508-10.538-36.133-14.018-55.271-9.796l-36.169,7.985H183.111l-36.171-7.986c-19.129-4.224-38.758-0.743-55.269,9.796
	c-16.513,10.54-27.932,26.879-32.155,46.008L24.895,438.43c-2.174,9.848-0.383,19.953,5.044,28.455
	c5.426,8.501,13.838,14.38,23.686,16.554c20.386,4.5,41.309,0.792,58.91-10.441c17.599-11.234,29.77-28.649,34.271-49.037
	l3.583-16.23c9.117,8.095,21.104,13.026,34.227,13.026c22.632,0,41.894-14.648,48.841-34.956l45.413-0.041
	c7.217,19.811,26.239,33.997,48.516,33.997c13.035,0,24.947-4.867,34.042-12.866l3.768,17.069
	c4.502,20.388,16.673,37.803,34.272,49.038c12.616,8.053,27.1,12.31,41.884,12.31c5.679,0,11.406-0.629,17.025-1.869
	c9.848-2.174,18.26-8.053,23.686-16.554C487.488,458.383,489.279,448.277,487.105,438.43z"/>
<path style="fill:#FF4429;" d="M256,233.787h-72.889l-36.171-7.986c-19.129-4.224-38.758-0.743-55.269,9.796
	c-16.513,10.54-27.932,26.879-32.155,46.008L24.895,438.43c-2.174,9.848-0.383,19.953,5.044,28.455
	c5.426,8.501,13.838,14.38,23.686,16.554c20.386,4.5,41.309,0.792,58.91-10.441c17.599-11.234,29.77-28.649,34.271-49.037
	l3.583-16.23c9.117,8.095,21.104,13.026,34.227,13.026c22.632,0,41.894-14.648,48.841-34.956L256,385.766V233.787z"/>
<g>
	<circle style="fill:#BDCFDF;" cx="395.5" cy="290.549" r="14.5"/>
	<circle style="fill:#BDCFDF;" cx="395.5" cy="336.549" r="14.5"/>
	<circle style="fill:#BDCFDF;" cx="418.5" cy="313.549" r="14.5"/>
	<circle style="fill:#BDCFDF;" cx="372.5" cy="313.549" r="14.5"/>
</g>
<path style="fill:#232575;" d="M303.252,316.609h-94.504c-4.831,0-8.748-3.917-8.748-8.748v-42.504c0-4.831,3.917-8.748,8.748-8.748
	h94.504c4.831,0,8.748,3.917,8.748,8.748v42.504C312,312.692,308.083,316.609,303.252,316.609z"/>
<circle style="fill:#6A8092;" cx="184.62" cy="369.139" r="29.592"/>
<g>
	<circle style="fill:#232575;" cx="327.38" cy="368.139" r="29.592"/>
	<path style="fill:#232575;" d="M149.869,294.568h-10.311c-1.824,0-3.302-1.479-3.302-3.302v-10.311
		c0-1.824-1.479-3.302-3.302-3.302h-16.053c-1.824,0-3.302,1.479-3.302,3.302v10.311c0,1.824-1.479,3.302-3.302,3.302H99.985
		c-1.824,0-3.302,1.479-3.302,3.302v16.053c0,1.824,1.479,3.302,3.302,3.302h10.311c1.824,0,3.302,1.479,3.302,3.302v10.311
		c0,1.824,1.479,3.302,3.302,3.302h16.053c1.824,0,3.302-1.479,3.302-3.302v-10.311c0-1.824,1.479-3.302,3.302-3.302h10.311
		c1.824,0,3.302-1.479,3.302-3.302V297.87C153.172,296.046,151.693,294.568,149.869,294.568z"/>
</g>
<g>
</g>
<g>
</g>
<g>
</g>
<g>
</g>
<g>
</g>
<g>
</g>
<g>
</g>
<g>
</g>
<g>
</g>
<g>
</g>
<g>
</g>
<g>
</g>
<g>
</g>
<g>
</g>
<g>
</g>
</svg>
