<svg id="Capa_1" enable-background="new 0 0 512 512" height="512" viewBox="0 0 512 512" width="512" xmlns="http://www.w3.org/2000/svg"><g><g><g><path d="m377.821 507.109-17.756-28.41h60.358v22.894c0 5.747-4.659 10.406-10.406 10.406h-23.37c-3.589.001-6.924-1.847-8.826-4.89z" fill="#838383"/></g></g><g><g><path d="m134.179 507.109 17.756-28.41h-60.358v22.894c0 5.747 4.659 10.406 10.407 10.406h23.37c3.588.001 6.923-1.847 8.825-4.89z" fill="#838383"/></g></g><g><path d="m420.423 478.699h-328.846c-27.587 0-49.951-22.364-49.951-49.951v-20.813h428.748v20.813c0 27.587-22.364 49.951-49.951 49.951z" fill="#fd8087"/></g><g><path d="m41.626 137.366h428.748v270.569h-428.748z" fill="#dff6fd"/></g><g><path d="m428.748 137.366h41.626v270.569h-41.626z" fill="#c8effe"/></g><g><path d="m500.495 236.777-30.121 15.06v-114.471h31.22c5.747 0 10.406 4.659 10.406 10.406v70.389c0 7.884-4.454 15.09-11.505 18.616z" fill="#0573ce"/></g><g><path d="m11.505 236.777 30.121 15.06v-114.471h-31.22c-5.747 0-10.406 4.659-10.406 10.406v70.389c0 7.884 4.454 15.09 11.505 18.616z" fill="#528fd8"/></g><g><path d="m91.577 66.602h328.846c27.587 0 49.951 22.364 49.951 49.951v20.813h-428.748v-20.813c0-27.587 22.364-49.951 49.951-49.951z" fill="#fd8087"/></g><g><path d="m420.423 66.602h-41.626c27.587 0 49.951 22.364 49.951 49.951v20.813h41.626v-20.813c0-27.588-22.364-49.951-49.951-49.951z" fill="#fe646f"/></g><g><path d="m420.423 478.699h-41.626c27.587 0 49.951-22.364 49.951-49.951v-20.813h41.626v20.813c0 27.587-22.364 49.951-49.951 49.951z" fill="#fe646f"/></g><g><path d="m192.835 39.29c1.713-3.655 5.386-5.99 9.423-5.99h107.485c4.037 0 7.709 2.334 9.423 5.99l12.802 27.311h48.911l-19.989-42.643c-6.854-14.62-21.545-23.958-37.692-23.958h-134.396c-16.147 0-30.837 9.338-37.691 23.959l-19.989 42.643h48.911z" fill="#fd4755"/></g><g><g><path d="m144.78 37.463-13.659 29.138h48.911l12.802-27.311c.309-.66.702-1.259 1.129-1.827z" fill="#fb2b3a"/></g><g><path d="m318.036 37.463c.428.568.82 1.167 1.129 1.827l12.802 27.311h48.911l-13.658-29.138z" fill="#fb2b3a"/></g></g><g><path d="m322.602 407.935h-133.204v-106.146c0-36.783 29.819-66.602 66.602-66.602 36.783 0 66.602 29.819 66.602 66.602z" fill="#99e6fc"/></g><g><path d="m272.65 376.715h-33.3c-9.196 0-16.65-7.455-16.65-16.65 0-9.196 7.455-16.65 16.65-16.65h33.301c9.196 0 16.65 7.455 16.65 16.65 0 9.196-7.455 16.65-16.651 16.65z" fill="#ffe177"/></g><g><path d="m272.65 312.195h-33.3c-9.196 0-16.65-7.455-16.65-16.65 0-9.196 7.455-16.65 16.65-16.65h33.301c9.196 0 16.65 7.455 16.65 16.65 0 9.195-7.455 16.65-16.651 16.65z" fill="#fd8087"/></g><g><path d="m401.691 351.955h-20.813c-4.142 0-7.5-3.357-7.5-7.5s3.358-7.5 7.5-7.5h20.813c4.142 0 7.5 3.357 7.5 7.5s-3.358 7.5-7.5 7.5z" fill="#528fd8"/></g><g><path d="m401.691 383.175h-20.813c-4.142 0-7.5-3.357-7.5-7.5s3.358-7.5 7.5-7.5h20.813c4.142 0 7.5 3.357 7.5 7.5s-3.358 7.5-7.5 7.5z" fill="#528fd8"/></g><g><path d="m131.122 351.955h-20.813c-4.142 0-7.5-3.357-7.5-7.5s3.358-7.5 7.5-7.5h20.813c4.142 0 7.5 3.357 7.5 7.5s-3.358 7.5-7.5 7.5z" fill="#528fd8"/></g><g><path d="m131.122 383.175h-20.813c-4.142 0-7.5-3.357-7.5-7.5s3.358-7.5 7.5-7.5h20.813c4.142 0 7.5 3.357 7.5 7.5s-3.358 7.5-7.5 7.5z" fill="#528fd8"/></g></g></svg>