<svg id="Capa_1" enable-background="new 0 0 512 512" height="512" viewBox="0 0 512 512" width="512" xmlns="http://www.w3.org/2000/svg"><g><g><path clip-rule="evenodd" d="m320.221 0h-176.282c-14.58 0-26.526 11.885-26.526 26.428v18.31h229.303v-18.31c.001-14.543-11.915-26.428-26.495-26.428z" fill="#f07281" fill-rule="evenodd"/></g><g><path clip-rule="evenodd" d="m274.84 0c14.58 0 26.496 11.885 26.496 26.428v18.31h24.008 21.373v-18.31c0-14.543-11.916-26.428-26.496-26.428z" fill="#eb5569" fill-rule="evenodd"/></g><g><path clip-rule="evenodd" d="m343.701 460.487h-222.188v31.655c0 10.922 8.959 19.857 19.88 19.857h182.4c10.95 0 19.909-8.936 19.909-19.857v-31.655z" fill="#017297" fill-rule="evenodd"/></g><g><path clip-rule="evenodd" d="m359.365 66.931-131.698-18.931-139.414 18.931 33.435 50.812 8.227 93.038c51.587 67.282 87.716 42.664 116.467 60.069 31.825-13.229 75.829-76.13 94.45-60.127l10.686-82.905 4.275-33.232z" fill="#eaf6ff" fill-rule="evenodd"/></g><g><path clip-rule="evenodd" d="m250.042 201.757c-28.751-17.404-91.991-17.959-120.127 9.023 59.229 64.625 106.689 25.348 120.127-9.023z" fill="#fece85" fill-rule="evenodd"/></g><g><path clip-rule="evenodd" d="m340.832 210.722c-18.621-16.003-58.995-22.194-90.79-8.965-6.148 2.541-11.975 5.84-17.245 9.9-29.483 17.872-73.399 16.996-102.882-.876l11.77 133.337 81.011 21.23 100.833-21.23h.088l4.684-36.327 5.329-41.379z" fill="#fedba6" fill-rule="evenodd"/></g><g><path clip-rule="evenodd" d="m435.897 142.857c0-26.545-21.783-48.271-48.425-48.271h-52.349l-4.275 33.232h59.141c7.056 0 12.941 5.87 12.941 12.907v47.804c0 27.859-1.727 37.583-24.652 53.148l-44.649 24.734-20.319 21.843 14.99 19.536 50.328-29.027c38.5-22.252 57.267-47.775 57.267-88.073v-47.833z" fill="#f07281" fill-rule="evenodd"/></g><g><path clip-rule="evenodd" d="m365.748 379.948c0-19.711-16.161-35.831-35.895-35.831h-6.324-181.844-6.324c-19.733 0-35.894 16.12-35.894 35.831v82.934c0 5.169 4.245 9.403 9.427 9.403h12.619 222.189 12.619c5.182 0 9.427-4.234 9.427-9.403z" fill="#f07281" fill-rule="evenodd"/></g><g><path clip-rule="evenodd" d="m325.344 66.931-16.718 129.628c11.54 14.163 22.04 16.774 32.206 14.163l10.686-82.905 4.275-33.232 3.572-27.654-17.032-16.251z" fill="#d8ecfe" fill-rule="evenodd"/></g><g><path clip-rule="evenodd" d="m305.055 224.155-15.459 119.962h33.933.088l4.684-36.327 5.329-41.379 7.202-55.688c-7.729-6.629-19.177-11.593-32.206-14.163z" fill="#fece85" fill-rule="evenodd"/></g><g><path d="m278.324 434.193h-19.528c-4.268 0-7.726-3.459-7.726-7.726s3.459-7.726 7.726-7.726h19.528c4.268 0 7.726 3.459 7.726 7.726s-3.458 7.726-7.726 7.726zm0-36.531h-19.528c-4.268 0-7.726-3.459-7.726-7.726s3.459-7.726 7.726-7.726h19.528c4.268 0 7.726 3.459 7.726 7.726s-3.458 7.726-7.726 7.726z" fill="#eaf6ff"/></g><g><path clip-rule="evenodd" d="m216.87 408.216c0-13.462-10.95-24.384-24.447-24.384s-24.447 10.922-24.447 24.384 10.95 24.384 24.447 24.384 24.447-10.922 24.447-24.384z" fill="#eaf6ff" fill-rule="evenodd"/></g><g><path clip-rule="evenodd" d="m420.585 141.951v47.804c0 40.299-25.559 67.223-65.172 87.46l-24.798 12.674-2.313 17.901 50.328-29.027c38.5-22.252 57.267-47.775 57.267-88.073v-47.833c0-26.545-21.783-48.271-48.425-48.271h-21.168c26.613-.001 54.281 20.821 54.281 47.365z" fill="#eb5569" fill-rule="evenodd"/></g><g><path clip-rule="evenodd" d="m309.124 472.285v19.857c0 10.922-8.959 19.857-19.909 19.857h34.577c10.95 0 19.909-8.936 19.909-19.857v-19.857h-21.988z" fill="#025f80" fill-rule="evenodd"/></g><g><path clip-rule="evenodd" d="m331.141 379.948v80.539 2.395c0 5.169-4.245 9.403-9.427 9.403h21.988 12.619c5.182 0 9.427-4.234 9.427-9.403v-82.934c0-19.711-16.161-35.831-35.895-35.831h-6.324-27.99c4.948.058 9.662 1.11 13.936 2.979 12.737 5.519 21.666 18.193 21.666 32.852z" fill="#eb5569" fill-rule="evenodd"/></g><g><path clip-rule="evenodd" d="m346.717 34.429h-229.303-29.161c-6.675 0-12.15 5.461-12.15 12.148v8.206c0 6.687 5.475 12.148 12.15 12.148h271.112 4.86c6.705 0 12.18-5.461 12.18-12.148v-8.206c0-6.687-5.475-12.148-12.18-12.148z" fill="#017297" fill-rule="evenodd"/></g><g><path clip-rule="evenodd" d="m325.344 34.429c6.675 0 12.15 5.461 12.15 12.148v6.278 1.927c0 6.687-5.475 12.148-12.15 12.148h34.021 4.86c6.705 0 12.18-5.461 12.18-12.148v-8.206c0-6.687-5.475-12.148-12.18-12.148h-17.508-21.373z" fill="#025f80" fill-rule="evenodd"/></g></g></svg>