<svg id="Capa_1" enable-background="new 0 0 512 512" height="512" viewBox="0 0 512 512" width="512" xmlns="http://www.w3.org/2000/svg"><g><path d="m512 391h-60l30-30h30z" fill="#e1e6f0"/><path d="m512 451h-30l-30-30h60z" fill="#e1e6f0"/><path d="m330.165 391c.557-4.922.835-9.932.835-15v-30c0-24.814-20.186-45-45-45s-45 20.186-45 45c0 33.179 21.65 61.377 51.563 71.25-16.07 37.456-53.306 64.75-96.563 64.75h-30c-24.814 0-45-21.186-45-46v-8.027h-30v8.027c0 41.353 33.647 76 75 76h30c58.667 0 108.721-38.617 127.295-91h83.705v-30zm-29.165-15c0 4.116-.234 8.174-.703 12.173-17.095-6.387-29.297-22.881-29.297-42.173 0-8.276 6.724-15 15-15s15 6.724 15 15z" fill="#3d3d66"/><g><path d="m91 303.589c-.157 8.983-2.505 37.885-30 66.2v6.211c0 41.353 33.647 75 75 75h39.272c9.329-18.937 16.089-39.278 21.643-60z" fill="#2e2e4d"/><path d="m104.564 239.136-26.162 14.678c8.365 14.897 12.598 31.439 12.598 47.186 0 .406.022 1.296 0 2.589v12.411c0 41.353 33.647 75 75 75h30.916c9.747-36.352 14.084-73.112 14.084-106v-37.427z" fill="#e63a57"/><path d="m91 301v2.589c.022-1.293 0-2.183 0-2.589z"/></g><path d="m407 59.185-30 37.209v38.606 41.684l30 34.131 105 35v-110.815-110.815z" fill="#4d4d80"/><path d="m407 210.815 105 35v-110.815h-135v41.684z" fill="#2e2e4d"/><path d="m136 0c-74.443 0-136 60.557-136 135s61.557 135 136 135c62.886 0 271-59.185 271-59.185v-75.815-75.815s-208.114-59.185-271-59.185z" fill="#ff73b9"/><path d="m136 270c62.886 0 271-59.185 271-59.185v-75.815h-407c0 74.443 61.557 135 136 135z" fill="#f25588"/><g><path d="m482 451h-45c-24.814 0-45-20.186-45-45s20.186-45 45-45h45z" fill="#f25588"/></g><path d="m61 120v15 15h30v-15-15z" fill="#3d3d66"/><path d="m61 135h30v15h-30z" fill="#2e2e4d"/><circle cx="196" cy="135" fill="#f3f5f9" r="75"/><path d="m196 210c41.353 0 75-33.647 75-75h-150c0 41.353 33.647 75 75 75z" fill="#e1e6f0"/><path d="m153.754 150c6.198 17.437 22.681 30 42.246 30s36.048-12.563 42.246-30z" fill="#2e2e4d"/><path d="m238.246 120c-6.198-17.437-22.681-30-42.246-30s-36.048 12.563-42.246 30z" fill="#3d3d66"/></g></svg>