<svg id="Layer_1" enable-background="new 0 0 64 64" viewBox="0 0 64 64" xmlns="http://www.w3.org/2000/svg"><g id="XMLID_3130_"><g id="XMLID_3084_"><g id="XMLID_3102_" fill="#666"><path id="XMLID_3104_" d="m43.14 62.07v1.47c0 .25.2.45.45.45h2.7c.25 0 .45-.2.45-.45v-1.47z"/><path id="XMLID_3103_" d="m17.28 62.07v1.47c0 .25.2.45.45.45h2.7c.25 0 .45-.2.45-.45v-1.47z"/></g><path id="XMLID_3101_" d="m46.61 0h-29.19c-.94 0-1.7.76-1.7 1.7v58.67c0 .94.76 1.7 1.7 1.7h29.19c.94 0 1.7-.76 1.7-1.7v-58.67c0-.94-.76-1.7-1.7-1.7z" fill="#fc6"/><path id="XMLID_3089_" d="m19.74 7.23c-.03-.55-.35-.98-.73-.98s-.7.43-.73.98c-.41 8.46-.41 16.95 0 25.4.03.55.35.98.73.98h.01c.38 0 .7-.43.73-.98.4-8.45.4-16.94-.01-25.4z" fill="#e7b95d"/><path id="XMLID_3092_" d="m43.61 42.52h-23.25c-.67 0-1.21.54-1.21 1.21v.01c0 .59.43 1.1 1.02 1.2 8.62 1.4 20.81.42 23.62-.01.59-.09 1.03-.6 1.03-1.2 0-.67-.54-1.21-1.21-1.21z" fill="#e7b95d"/><path id="XMLID_3098_" d="m22.67 44.09h18.63c.28 0 .51-.23.51-.51v-1.06h-19.64v1.06c0 .28.22.51.5.51z" fill="#e0ae55"/><path id="XMLID_3088_" d="m15.69 39.48h32.59v1.1h-32.59z" fill="#666"/><path id="XMLID_3094_" d="m46.55 39.48h-1.48c-.3 0-.55.25-.55.55s.25.55.55.55h1.48c.3 0 .55-.25.55-.55 0-.31-.24-.55-.55-.55z" fill="#ccc"/></g><ellipse id="XMLID_3095_" cx="32" cy="10.8" fill="#ed7161" rx="6.83" ry="2.5"/></g></svg>