<svg id="Capa_1" enable-background="new 0 0 511.997 511.997" height="512" viewBox="0 0 511.997 511.997" width="512" xmlns="http://www.w3.org/2000/svg"><g><path d="m255.999 68.165c-85.725 0-155.466 69.741-155.466 155.466 0 43.774 18.288 85.14 50.416 114.587v41.094h210.102v-41.094c32.128-29.447 50.416-70.812 50.416-114.587-.002-85.725-69.744-155.466-155.468-155.466z" fill="#ffef4a"/><path d="m255.999 68.165v311.146h105.051v-41.094c32.128-29.447 50.416-70.812 50.416-114.587-.001-85.724-69.743-155.465-155.467-155.465z" fill="#ffd321"/><path d="m178.131 424.315 27.753 87.682h100.229l27.753-87.682z" fill="#efe5e0"/><path d="m306.113 511.997 27.753-87.682h-77.867v87.682z" fill="#dcd2cd"/><path d="m150.948 379.313h210.102v75.002h-210.102z" fill="#fff5f5"/><path d="m255.999 379.313h105.051v75.002h-105.051z" fill="#efe5e0"/><g><path d="m301 379.312h-30v-94.562c-4.693 1.665-9.745 2.571-15.002 2.571s-10.308-.906-15.002-2.571v94.562h-30v-143.044h30v6.052c0 8.272 6.73 15.002 15.002 15.002s15.002-6.729 15.002-15.002v-6.052h30z" fill="#ffd321"/></g><path d="m271 236.268v6.052c0 8.272-6.729 15.002-15.002 15.002v30c5.257 0 10.309-.906 15.002-2.571v94.562h30v-143.045z" fill="#ffb454"/><g><path d="m240.999 0h30v40.003h-30z" fill="#ffef4a"/></g><g><path d="m97.011 59.642h30v40.003h-30z" fill="#ffef4a" transform="matrix(.707 -.707 .707 .707 -23.509 102.531)"/></g><g><path d="m32.368 208.631h40.002v30h-40.002z" fill="#ffef4a"/></g><g><path d="m439.627 208.631h40.002v30h-40.002z" fill="#ffef4a"/></g><g><path d="m379.985 64.643h40.003v30h-40.003z" fill="#ffef4a" transform="matrix(.707 -.707 .707 .707 60.837 306.16)"/></g><g><path d="m133.998 364.312h244.002v30h-244.002z" fill="#efe5e0"/></g><path d="m255.999 364.312h122.001v30h-122.001z" fill="#dcd2cd"/><g><path d="m439.627 208.631h40.002v30h-40.002z" fill="#ffd321"/></g><g><path d="m379.985 64.643h40.003v30h-40.003z" fill="#ffd321" transform="matrix(.707 -.707 .707 .707 60.837 306.16)"/></g><path d="m255.999 0h15v40.003h-15z" fill="#ffd321"/></g></svg>