<svg id="Capa_1" enable-background="new 0 0 510 510" height="512" viewBox="0 0 510 510" width="512" xmlns="http://www.w3.org/2000/svg" xmlns:xlink="http://www.w3.org/1999/xlink"><linearGradient id="SVGID_1_" gradientUnits="userSpaceOnUse" x1="330.164" x2="390.055" y1="315.711" y2="315.711"><stop offset="0" stop-color="#5a5a5a"/><stop offset="1" stop-color="#444"/></linearGradient><linearGradient id="lg1"><stop offset="0" stop-color="#433f43" stop-opacity="0"/><stop offset="1" stop-color="#1a1a1a"/></linearGradient><linearGradient id="SVGID_00000177448852650535346880000003556693868337364107_" gradientUnits="userSpaceOnUse" x1="350.033" x2="356.849" xlink:href="#lg1" y1="295.21" y2="351.686"/><linearGradient id="SVGID_00000109001006489076869610000016169675042968645253_" gradientUnits="userSpaceOnUse" x1="350.381" x2="356.685" xlink:href="#lg1" y1="296.592" y2="348.823"/><linearGradient id="lg2"><stop offset="0" stop-color="#feaee1"/><stop offset="1" stop-color="#fe5694"/></linearGradient><linearGradient id="SVGID_00000133530980178554814210000007698960878597095065_" gradientUnits="userSpaceOnUse" x1="202.54" x2="289.647" xlink:href="#lg2" y1="191.042" y2="428.843"/><linearGradient id="SVGID_00000179626030029633497370000010042165974471136184_" gradientUnits="userSpaceOnUse" x1="341.716" x2="278.128" xlink:href="#lg2" y1="336.46" y2="204.929"/><linearGradient id="SVGID_00000172422546081937019450000015976517219760860041_" gradientUnits="userSpaceOnUse" x1="264.534" x2="264.534" y1="354.511" y2="392.563"><stop offset="0" stop-color="#e30256" stop-opacity="0"/><stop offset="1" stop-color="#e30256"/></linearGradient><linearGradient id="lg3"><stop offset="0" stop-color="#eaf6ff"/><stop offset="1" stop-color="#b3dafe"/></linearGradient><linearGradient id="SVGID_00000077293417416709078290000011928772817612885415_" gradientUnits="userSpaceOnUse" x1="246.179" x2="246.179" xlink:href="#lg3" y1="398.54" y2="444.747"/><linearGradient id="SVGID_00000102514187270336060330000018353080425640296882_" gradientUnits="userSpaceOnUse" x1="246.179" x2="246.179" y1="427.325" y2="457.479"><stop offset="0" stop-color="#d8ecfe" stop-opacity="0"/><stop offset="1" stop-color="#678d98"/></linearGradient><linearGradient id="SVGID_00000084513809108508410900000018366676364468174237_" gradientUnits="userSpaceOnUse" x1="73.748" x2="91.248" y1="349.263" y2="366.763"><stop offset="0" stop-color="#fd4755"/><stop offset="1" stop-color="#a72b2b"/></linearGradient><linearGradient id="SVGID_00000052820504706734495720000015678607816704018357_" gradientUnits="userSpaceOnUse" x1="135.748" x2="152.649" y1="351.263" y2="368.163"><stop offset="0" stop-color="#fedf30"/><stop offset="1" stop-color="#fe7701"/></linearGradient><linearGradient id="SVGID_00000182507191338923002350000003535813647172867227_" gradientUnits="userSpaceOnUse" x1="194.748" x2="210.818" y1="350.263" y2="366.333"><stop offset="0" stop-color="#ade194"/><stop offset="1" stop-color="#97d729"/></linearGradient><linearGradient id="SVGID_00000013189203192421214240000012445616793642330290_" gradientUnits="userSpaceOnUse" x1="197.349" x2="234.565" xlink:href="#lg3" y1="120.397" y2="120.397"/><linearGradient id="SVGID_00000000204193722370692530000010191731366952525971_" gradientUnits="userSpaceOnUse" x1="232.117" x2="269.334" xlink:href="#lg3" y1="100.338" y2="100.338"/><linearGradient id="SVGID_00000101083609698098966240000007983513927813587591_" gradientUnits="userSpaceOnUse" x1="275.435" x2="312.651" xlink:href="#lg3" y1="120.397" y2="120.397"/><g><g><g><path d="m405 343.211h-104v-44.391c0-5.859 4.75-10.609 10.609-10.609h82.782c5.859 0 10.609 4.75 10.609 10.609z" fill="url(#SVGID_1_)"/><path d="m387.942 343.211h-69.884v-46.304c0-4.803 3.893-8.696 8.696-8.696h52.491c4.803 0 8.696 3.893 8.696 8.696v46.304z" fill="url(#SVGID_00000177448852650535346880000003556693868337364107_)"/><path d="m366.995 343.211h-27.99v-49.496c0-3.04 2.464-5.504 5.504-5.504h16.983c3.04 0 5.504 2.464 5.504 5.504v49.496z" fill="url(#SVGID_00000109001006489076869610000016169675042968645253_)"/></g><g><path d="m509.279 332.116-35.434-136.298c-5.671-21.846-25.923-36.742-48.462-35.579-342.408 17.666-406.314 266.469-406.314 266.469h441.384c-4.403-19.285.902-40.335 15.927-55.361 5.881-5.888 12.689-10.28 19.957-13.18 10.264-4.096 15.722-15.355 12.942-26.051zm-94.193-4.248h-125.49c-27.883 0-42.411-33.444-23.167-53.621 23.897-25.056 64.102-50.23 130.252-53.968 9.89-.559 18.816 5.916 21.308 15.504l17.185 66.108c3.417 13.145-6.505 25.977-20.088 25.977z" fill="url(#SVGID_00000133530980178554814210000007698960878597095065_)"/><path d="m437.966 312.25-3.384-12.635.588 2.273c3.423 13.145-6.507 25.975-20.082 25.975h-125.487c-27.883 0-42.412-33.436-23.166-53.623 23.885-25.048 64.102-50.226 130.242-53.963 8.284-.47 15.901 4.011 19.612 11.119l-4.625-17.26c-.131-.51-.287-1.006-.444-1.503-4.09-12.635-17.025-20.213-30.209-18.449-81.976 10.936-134.031 44.072-166.461 77.037-29.451 29.947-7.225 79.585 35.448 79.585h157.224c20.787.001 35.97-19.035 30.744-38.556z" fill="url(#SVGID_00000179626030029633497370000010042165974471136184_)"/><path d="m435.174 301.89c3.417 13.146-6.505 25.978-20.088 25.978h-125.49c-22.056 0-35.737-20.924-30.975-39.657h-153.467c-68.083 68.416-86.086 138.498-86.086 138.498h441.384c-4.403-19.286.902-40.335 15.927-55.361 5.881-5.888 12.689-10.28 19.957-13.18 10.265-4.096 15.723-15.354 12.942-26.051l-11.414-43.906h-66.246z" fill="url(#SVGID_00000172422546081937019450000015976517219760860041_)"/><g><path d="m465.651 452.911h-438.944c-14.75 0-26.707-11.957-26.707-26.707v-8.751c0-14.75 11.957-26.707 26.707-26.707h438.944c14.75 0 26.707 11.957 26.707 26.707v8.751c.001 14.75-11.956 26.707-26.707 26.707z" fill="url(#SVGID_00000077293417416709078290000011928772817612885415_)"/><path d="m465.651 452.911h-438.944c-14.75 0-26.707-11.957-26.707-26.707v-8.751h492.359v8.751c0 14.75-11.957 26.707-26.708 26.707z" fill="url(#SVGID_00000102514187270336060330000018353080425640296882_)"/></g></g><g><circle cx="81.837" cy="357.352" fill="url(#SVGID_00000084513809108508410900000018366676364468174237_)" r="16"/><circle cx="141.837" cy="357.352" fill="url(#SVGID_00000052820504706734495720000015678607816704018357_)" r="16"/><circle cx="201.837" cy="357.352" fill="url(#SVGID_00000182507191338923002350000003535813647172867227_)" r="16"/></g></g><g><path d="m229.934 124.966-.318-.462c-8.997-13.06-13.764-28.482-13.791-44.193-.005-2.972-3.735-4.295-5.619-1.997l-8.088 9.865c-6.858 8.365-6.256 20.568 1.393 28.217 8.965 13.014 13.735 28.381 13.791 44.051.01 2.9 3.541 4.302 5.505 2.168l6.736-7.324c6.55-9.002 6.707-21.157.391-30.325z" fill="url(#SVGID_00000013189203192421214240000012445616793642330290_)"/><path d="m264.702 104.907-.318-.462c-8.997-13.06-13.764-28.482-13.791-44.193-.005-2.972-3.735-4.295-5.619-1.997l-8.088 9.865c-6.858 8.365-6.256 20.568 1.393 28.217 8.965 13.014 13.735 28.381 13.791 44.051.01 2.9 3.541 4.302 5.504 2.168l6.736-7.324c6.551-9.002 6.708-21.157.392-30.325z" fill="url(#SVGID_00000000204193722370692530000010191731366952525971_)"/><path d="m308.02 124.966-.318-.462c-8.997-13.06-13.764-28.482-13.791-44.193-.005-2.972-3.735-4.295-5.619-1.997l-8.088 9.865c-6.859 8.365-6.256 20.568 1.393 28.217 8.965 13.014 13.735 28.381 13.791 44.051.01 2.9 3.541 4.302 5.504 2.168l6.736-7.324c6.55-9.002 6.707-21.157.392-30.325z" fill="url(#SVGID_00000101083609698098966240000007983513927813587591_)"/></g></g></svg>