<svg id="Capa_1" enable-background="new 0 0 512 512" height="512" viewBox="0 0 512 512" width="512" xmlns="http://www.w3.org/2000/svg"><g><g><g><g><path d="m295 512h-240c-30.327 0-55-24.673-55-55v-402c0-30.327 24.673-55 55-55h240c30.327 0 55 24.673 55 55v402c0 30.327-24.673 55-55 55z" fill="#ffe278"/></g><g><path d="m295 0h-120v512h120c30.327 0 55-24.673 55-55v-402c0-30.327-24.673-55-55-55z" fill="#ffb454"/></g><g><path d="m175 462c-63.411 0-115-51.589-115-115s51.589-115 115-115 115 51.589 115 115-51.589 115-115 115z" fill="#0d8ebc"/></g><g><path d="m175 232v230c63.411 0 115-51.589 115-115s-51.589-115-115-115z" fill="#0a617d"/></g><g><path d="m175 402c-30.327 0-55-24.673-55-55s24.673-55 55-55 55 24.673 55 55-24.673 55-55 55z" fill="#f9f9f9"/></g><g><path d="m175 292v110c30.327 0 55-24.673 55-55s-24.673-55-55-55z" fill="#e2dff4"/></g><g><path d="m175 200c-41.355 0-75-33.645-75-75s33.645-75 75-75 75 33.645 75 75-33.645 75-75 75z" fill="#0d8ebc"/></g><g><path d="m175 50v150c41.355 0 75-33.645 75-75s-33.645-75-75-75z" fill="#0a617d"/></g><circle cx="175" cy="125" fill="#f9f9f9" r="15"/><g><path d="m175 110v30c8.284 0 15-6.716 15-15s-6.716-15-15-15z" fill="#e2dff4"/></g><circle cx="275" cy="212" fill="#e2dff4" r="15"/><circle cx="75" cy="212" fill="#f9f9f9" r="15"/></g></g><g><path d="m503.705 353.584-40-20c-4.649-2.325-10.172-2.077-14.594.656s-7.114 7.562-7.114 12.76v86.266c-3.197-.826-6.548-1.266-10-1.266-22.056 0-40 17.944-40 40s17.944 40 40 40c20.397 0 37.266-15.35 39.69-35.104l.31.104v-105.729l18.292 9.146c7.409 3.705 16.42.702 20.125-6.708 3.704-7.41.7-16.421-6.709-20.125z" fill="#ec3d93"/><path d="m503.705 73.584-40-20c-4.649-2.325-10.172-2.077-14.594.656s-7.114 7.562-7.114 12.76v86.266c-3.197-.826-6.548-1.266-10-1.266-22.056 0-40 17.944-40 40s17.944 40 40 40 40-17.944 40-40v-100.729l18.292 9.146c7.409 3.707 16.42.701 20.125-6.708 3.704-7.41.7-16.421-6.709-20.125z" fill="#00a78e"/></g></g></svg>