<svg width="75" height="75" viewBox="0 0 75 75" fill="none" xmlns="http://www.w3.org/2000/svg">
<path d="M69.1406 4.10156C68.9075 4.10156 68.684 4.19416 68.5191 4.35899C68.3543 4.52381 68.2617 4.74737 68.2617 4.98047V25.4883C68.2617 25.7214 68.3543 25.9449 68.5191 26.1098C68.684 26.2746 68.9075 26.3672 69.1406 26.3672C69.3737 26.3672 69.5973 26.2746 69.7621 26.1098C69.9269 25.9449 70.0195 25.7214 70.0195 25.4883V4.98047C70.0195 4.74737 69.9269 4.52381 69.7621 4.35899C69.5973 4.19416 69.3737 4.10156 69.1406 4.10156Z" fill="#263238"/>
<path d="M4.98047 4.98047V25.4883C4.98047 25.7214 5.07307 25.9449 5.23789 26.1098C5.40272 26.2746 5.62627 26.3672 5.85938 26.3672C6.09248 26.3672 6.31603 26.2746 6.48086 26.1098C6.64568 25.9449 6.73828 25.7214 6.73828 25.4883V4.98047C6.73828 4.74737 6.64568 4.52381 6.48086 4.35899C6.31603 4.19416 6.09248 4.10156 5.85938 4.10156C5.62627 4.10156 5.40272 4.19416 5.23789 4.35899C5.07307 4.52381 4.98047 4.74737 4.98047 4.98047Z" fill="#263238"/>
<path d="M69.1406 10.8398C71.8913 10.8398 74.1211 8.61001 74.1211 5.85938C74.1211 3.10874 71.8913 0.878906 69.1406 0.878906C66.39 0.878906 64.1602 3.10874 64.1602 5.85938C64.1602 8.61001 66.39 10.8398 69.1406 10.8398Z" fill="#37474F"/>
<path d="M37.5 4.6875C17.2371 4.6875 0.878906 20.0232 0.878906 40.1437V53.5283C0.878906 56.3481 1.99904 59.0523 3.9929 61.0462C5.98675 63.04 8.691 64.1602 11.5107 64.1602H27.8391C28.0905 64.1584 28.3341 64.2476 28.525 64.4113C28.7159 64.5749 28.8412 64.802 28.8779 65.0508C29.0535 66.8271 28.6858 68.6149 27.8232 70.1777C27.6048 70.6247 27.5236 71.1264 27.5898 71.6195C27.6561 72.1126 27.8668 72.575 28.1955 72.9485C28.5242 73.322 28.9561 73.5898 29.4368 73.7182C29.9174 73.8466 30.4253 73.8298 30.8965 73.6699C35.4873 72.0844 41.1697 69.2912 44.6033 64.6008C44.7003 64.4654 44.8279 64.3549 44.9758 64.2783C45.1237 64.2017 45.2876 64.1612 45.4541 64.1602H63.4893C66.309 64.1602 69.0132 63.04 71.0071 61.0462C73.001 59.0523 74.1211 56.3481 74.1211 53.5283V40.1437C74.124 20.0232 57.7629 4.6875 37.5 4.6875Z" fill="#CFD8DC"/>
<path d="M13.7695 56.5429C12.3709 56.5429 11.0296 55.9873 10.0406 54.9984C9.05169 54.0094 8.49609 52.6681 8.49609 51.2695V39.8437C8.23359 24.157 22.0043 12.0498 37.5 12.0117C53.0432 11.973 66.7717 24.1043 66.5039 39.8437V51.2695C66.5039 52.6681 65.9483 54.0094 64.9594 54.9984C63.9704 55.9873 62.6291 56.5429 61.2305 56.5429H13.7695Z" fill="#37474F"/>
<path d="M5.85938 10.8398C8.61001 10.8398 10.8398 8.61001 10.8398 5.85938C10.8398 3.10874 8.61001 0.878906 5.85938 0.878906C3.10874 0.878906 0.878906 3.10874 0.878906 5.85938C0.878906 8.61001 3.10874 10.8398 5.85938 10.8398Z" fill="#37474F"/>
<path d="M22.8516 36.0352C25.2786 36.0352 27.2461 34.0677 27.2461 31.6406C27.2461 29.2136 25.2786 27.2461 22.8516 27.2461C20.4245 27.2461 18.457 29.2136 18.457 31.6406C18.457 34.0677 20.4245 36.0352 22.8516 36.0352Z" fill="#03A9F4"/>
<path d="M52.1484 36.0352C54.5755 36.0352 56.543 34.0677 56.543 31.6406C56.543 29.2136 54.5755 27.2461 52.1484 27.2461C49.7214 27.2461 47.7539 29.2136 47.7539 31.6406C47.7539 34.0677 49.7214 36.0352 52.1484 36.0352Z" fill="#03A9F4"/>
<path d="M29.4141 40.1367C29.1534 40.1367 28.8959 40.1946 28.6604 40.3063C28.4249 40.418 28.2171 40.5807 28.0522 40.7827C27.8873 40.9846 27.7694 41.2206 27.707 41.4737C27.6446 41.7268 27.6393 41.9907 27.6914 42.2461C28.1745 44.4887 29.4115 46.4981 31.1963 47.9394C32.9811 49.3806 35.2059 50.1668 37.5 50.1668C39.7941 50.1668 42.0189 49.3806 43.8037 47.9394C45.5885 46.4981 46.8255 44.4887 47.3086 42.2461C47.3607 41.9907 47.3554 41.7268 47.293 41.4737C47.2306 41.2206 47.1127 40.9846 46.9478 40.7827C46.7829 40.5807 46.5751 40.418 46.3396 40.3063C46.1041 40.1946 45.8466 40.1367 45.5859 40.1367H29.4141Z" fill="white"/>
<path d="M44.8652 46.9453C43.9263 47.9616 42.7873 48.7725 41.5197 49.3271C40.2522 49.8817 38.8836 50.168 37.5 50.168C36.1164 50.168 34.7478 49.8817 33.4803 49.3271C32.2127 48.7725 31.0737 47.9616 30.1348 46.9453C31.0931 45.9624 32.2385 45.1813 33.5034 44.648C34.7683 44.1146 36.1272 43.8398 37.5 43.8398C38.8728 43.8398 40.2317 44.1146 41.4966 44.648C42.7615 45.1813 43.9069 45.9624 44.8652 46.9453Z" fill="#03A9F4"/>
</svg>
