<svg width="13" height="12" viewBox="0 0 13 12" fill="none" xmlns="http://www.w3.org/2000/svg">
<g clip-path="url(#clip0_25_896)">
<path fill-rule="evenodd" clip-rule="evenodd" d="M6.18085 0.181885C7.26257 0.194229 8.23979 0.460082 9.11253 0.979446C9.97486 1.48844 10.6922 2.21016 11.1959 3.07557C11.7121 3.95356 11.9764 4.93671 11.9887 6.02501C11.958 7.51407 11.4884 8.78588 10.5797 9.84042C9.67101 10.895 8.50722 11.5474 7.30248 11.7975V7.62261H8.44147L8.69905 5.98199H6.97435V4.90742C6.96478 4.68466 7.03523 4.46582 7.17296 4.29047C7.31089 4.11465 7.55378 4.02224 7.90162 4.01324H8.9431V2.57609C8.92816 2.57128 8.78637 2.55227 8.51771 2.51905C8.21304 2.4834 7.90665 2.46436 7.5999 2.46201C6.90564 2.46522 6.35657 2.66106 5.95269 3.04953C5.5488 3.4379 5.34248 3.99978 5.33374 4.73518V5.98199H4.02124V7.62261H5.33374V11.7975C3.85448 11.5474 2.69069 10.895 1.78202 9.84042C0.873348 8.78587 0.403708 7.51407 0.373047 6.02501C0.385314 4.93666 0.649561 3.95351 1.16579 3.07557C1.66952 2.21016 2.38686 1.48844 3.24919 0.979446C4.1219 0.460182 5.09912 0.194329 6.18085 0.181885Z" fill="white"/>
</g>
<defs>
<clipPath id="clip0_25_896">
<rect width="12" height="12" fill="white" transform="translate(0.200012)"/>
</clipPath>
</defs>
</svg>
