<svg width="13" height="12" viewBox="0 0 13 12" fill="none" xmlns="http://www.w3.org/2000/svg">
<g clip-path="url(#clip0_25_872)">
<path d="M6.79999 0.25C3.48499 0.25 0.799988 2.89 0.799988 6.146C0.799988 8.7515 2.51899 10.961 4.90249 11.74C5.20249 11.7955 5.31249 11.613 5.31249 11.4565C5.31249 11.3165 5.30749 10.9455 5.30499 10.454C3.63599 10.8095 3.28399 9.663 3.28399 9.663C3.01099 8.9825 2.61649 8.8005 2.61649 8.8005C2.07299 8.435 2.65849 8.4425 2.65849 8.4425C3.26099 8.4835 3.57749 9.05 3.57749 9.05C4.11249 9.9515 4.98199 9.691 5.32499 9.5405C5.37899 9.159 5.53349 8.8995 5.70499 8.752C4.37249 8.6045 2.97199 8.0975 2.97199 5.8385C2.97199 5.195 3.20449 4.669 3.58949 4.2565C3.52199 4.1075 3.31949 3.508 3.64199 2.696C3.64199 2.696 4.14449 2.538 5.29199 3.3005C5.77199 3.1695 6.28199 3.1045 6.79199 3.1015C7.30199 3.1045 7.81199 3.1695 8.29199 3.3005C9.43199 2.538 9.93449 2.696 9.93449 2.696C10.257 3.508 10.0545 4.1075 9.99449 4.2565C10.377 4.669 10.6095 5.195 10.6095 5.8385C10.6095 8.1035 9.20699 8.602 7.87199 8.747C8.08199 8.924 8.27699 9.2855 8.27699 9.838C8.27699 10.627 8.26949 11.261 8.26949 11.4525C8.26949 11.607 8.37449 11.7915 8.68199 11.7325C11.0825 10.9585 12.8 8.7475 12.8 6.146C12.8 2.89 10.1135 0.25 6.79999 0.25Z" fill="white"/>
</g>
<defs>
<clipPath id="clip0_25_872">
<rect width="12" height="12" fill="white" transform="translate(0.799988)"/>
</clipPath>
</defs>
</svg>
