<svg width="12" height="12" viewBox="0 0 12 12" fill="none" xmlns="http://www.w3.org/2000/svg">
<g clip-path="url(#clip0_25_868)">
<path d="M6.002 2.91895C4.3005 2.91895 2.923 4.29795 2.923 5.99795C2.923 7.69945 4.302 9.07695 6.002 9.07695C7.7035 9.07695 9.081 7.69795 9.081 5.99795C9.081 4.29645 7.702 2.91895 6.002 2.91895ZM6.002 7.99645C4.8975 7.99645 4.0035 7.10195 4.0035 5.99795C4.0035 4.89395 4.898 3.99945 6.002 3.99945C7.106 3.99945 8.0005 4.89395 8.0005 5.99795C8.001 7.10195 7.1065 7.99645 6.002 7.99645Z" fill="white"/>
<path d="M8.47393 0.0381816C7.36993 -0.0133184 4.63543 -0.0108184 3.53043 0.0381816C2.55943 0.0836816 1.70293 0.318182 1.01243 1.00868C-0.141569 2.16268 0.00593053 3.71768 0.00593053 5.99818C0.00593053 8.33218 -0.124069 9.85118 1.01243 10.9877C2.17093 12.1457 3.74843 11.9942 6.00193 11.9942C8.31393 11.9942 9.11193 11.9957 9.92943 11.6792C11.0409 11.2477 11.8799 10.2542 11.9619 8.46968C12.0139 7.36518 12.0109 4.63118 11.9619 3.52618C11.8629 1.41968 10.7324 0.142182 8.47393 0.0381816ZM10.2214 10.2242C9.46493 10.9807 8.41543 10.9132 5.98743 10.9132C3.48743 10.9132 2.48493 10.9502 1.75343 10.2167C0.910931 9.37818 1.06343 8.03168 1.06343 5.99018C1.06343 3.22768 0.779931 1.23818 3.55243 1.09618C4.18943 1.07368 4.37693 1.06618 5.98043 1.06618L6.00293 1.08118C8.66743 1.08118 10.7579 0.802181 10.8834 3.57418C10.9119 4.20668 10.9184 4.39668 10.9184 5.99768C10.9179 8.46868 10.9649 9.47718 10.2214 10.2242Z" fill="white"/>
<path d="M9.20299 3.51688C9.60036 3.51688 9.92249 3.19475 9.92249 2.79738C9.92249 2.40001 9.60036 2.07788 9.20299 2.07788C8.80562 2.07788 8.48349 2.40001 8.48349 2.79738C8.48349 3.19475 8.80562 3.51688 9.20299 3.51688Z" fill="white"/>
</g>
<defs>
<clipPath id="clip0_25_868">
<rect width="12" height="12" fill="white"/>
</clipPath>
</defs>
</svg>
