<svg width="13" height="12" viewBox="0 0 13 12" fill="none" xmlns="http://www.w3.org/2000/svg">
<g clip-path="url(#clip0_25_874)">
<path d="M10.9636 0H2.23637C1.80238 0 1.38616 0.172402 1.07929 0.47928C0.772408 0.786158 0.600006 1.20237 0.600006 1.63636L0.600006 10.3636C0.600006 10.7976 0.772408 11.2138 1.07929 11.5207C1.38616 11.8276 1.80238 12 2.23637 12H10.9636C11.3976 12 11.8138 11.8276 12.1207 11.5207C12.4276 11.2138 12.6 10.7976 12.6 10.3636V1.63636C12.6 1.20237 12.4276 0.786158 12.1207 0.47928C11.8138 0.172402 11.3976 0 10.9636 0ZM4.69092 9.49636C4.691 9.52964 4.68453 9.56261 4.67186 9.59337C4.65918 9.62414 4.64057 9.65211 4.61707 9.67567C4.59357 9.69923 4.56565 9.71793 4.53492 9.73068C4.50419 9.74343 4.47124 9.75 4.43796 9.75H3.36001C3.32667 9.75009 3.29365 9.74359 3.26284 9.73088C3.23202 9.71816 3.20403 9.69948 3.18046 9.67591C3.15689 9.65234 3.13821 9.62435 3.12549 9.59353C3.11278 9.56272 3.10628 9.5297 3.10637 9.49636V4.97727C3.10637 4.91 3.13309 4.84549 3.18066 4.79792C3.22822 4.75036 3.29274 4.72364 3.36001 4.72364H4.43796C4.50511 4.72382 4.56945 4.75062 4.61687 4.79817C4.66429 4.84571 4.69092 4.91012 4.69092 4.97727V9.49636ZM3.89864 4.29545C3.69637 4.29545 3.49863 4.23547 3.33045 4.12309C3.16226 4.01072 3.03117 3.85099 2.95377 3.66411C2.87636 3.47723 2.8561 3.27159 2.89557 3.0732C2.93503 2.87481 3.03243 2.69258 3.17546 2.54955C3.3185 2.40652 3.50073 2.30911 3.69912 2.26965C3.89751 2.23019 4.10314 2.25044 4.29002 2.32785C4.4769 2.40526 4.63663 2.53634 4.74901 2.70453C4.86139 2.87272 4.92137 3.07045 4.92137 3.27273C4.92137 3.54397 4.81362 3.80411 4.62182 3.9959C4.43002 4.1877 4.16989 4.29545 3.89864 4.29545ZM10.3255 9.51409C10.3256 9.54474 10.3196 9.5751 10.3079 9.60343C10.2962 9.63176 10.279 9.65751 10.2574 9.67918C10.2357 9.70085 10.21 9.71802 10.1816 9.72971C10.1533 9.74139 10.1229 9.74736 10.0923 9.74727H8.93319C8.90254 9.74736 8.87218 9.74139 8.84385 9.72971C8.81551 9.71802 8.78977 9.70085 8.7681 9.67918C8.74643 9.65751 8.72926 9.63176 8.71757 9.60343C8.70588 9.5751 8.69992 9.54474 8.70001 9.51409V7.39705C8.70001 7.08068 8.79273 6.01159 7.87296 6.01159C7.16046 6.01159 7.01523 6.74318 6.9866 7.07182V9.51682C6.9866 9.57808 6.9625 9.63688 6.91951 9.68051C6.87651 9.72414 6.81808 9.7491 6.75682 9.75H5.63728C5.60669 9.75 5.5764 9.74396 5.54815 9.73224C5.51989 9.72051 5.49423 9.70332 5.47263 9.68166C5.45104 9.66 5.43392 9.63429 5.42228 9.606C5.41064 9.57771 5.40469 9.54741 5.40478 9.51682V4.9575C5.40469 4.92691 5.41064 4.8966 5.42228 4.86832C5.43392 4.84003 5.45104 4.81432 5.47263 4.79266C5.49423 4.77099 5.51989 4.75381 5.54815 4.74208C5.5764 4.73035 5.60669 4.72432 5.63728 4.72432H6.75682C6.81867 4.72432 6.87798 4.74889 6.92171 4.79262C6.96544 4.83635 6.99001 4.89566 6.99001 4.9575V5.35159C7.25455 4.95409 7.6466 4.64864 8.48319 4.64864C10.3364 4.64864 10.3241 6.37909 10.3241 7.32955L10.3255 9.51409Z" fill="white"/>
</g>
<defs>
<clipPath id="clip0_25_874">
<rect width="12" height="12" fill="white" transform="translate(0.600006)"/>
</clipPath>
</defs>
</svg>
