<svg width="28" height="28" viewBox="0 0 28 28" fill="none" xmlns="http://www.w3.org/2000/svg">
<path d="M15.0458 4.19946L15.8672 14.0001L15.0458 21.421C11.4657 21.421 8.55312 18.5084 8.55312 14.9283C8.55312 13.4547 9.55903 11.3016 11.5424 8.52867C12.9694 6.53382 14.3734 4.95349 14.4325 4.88723L15.0458 4.19946Z" fill="white"/>
<path d="M21.5385 14.9283C21.5385 18.5084 18.6259 21.421 15.0458 21.421V4.19946L15.6591 4.88723C15.7182 4.95349 17.1222 6.53382 18.5492 8.52867C20.5326 11.3016 21.5385 13.4547 21.5385 14.9283Z" fill="white"/>
<path d="M15.0458 1.0459V2.68865C8.80884 2.68865 3.73437 7.76313 3.73437 14.0001H2.09161C2.09161 10.5399 3.43922 7.28673 5.88583 4.84012C8.33244 2.39351 11.5856 1.0459 15.0458 1.0459Z" fill="white"/>
<path d="M14.2245 10.6992H15.0458L15.6367 16.0824L15.0458 26.9543H14.2245V16.6504L11.5215 14.4261L12.5652 13.1573L14.2245 14.523V10.6992Z" fill="white"/>
<path d="M28 14.0001C28 17.4603 26.6524 20.7135 24.2058 23.1601C21.7592 25.6067 18.506 26.9543 15.0458 26.9543V10.6993H15.8672V14.5466L17.5329 13.205L18.5635 14.4847L15.8672 16.6559V25.282C21.7219 24.8593 26.3572 19.9606 26.3572 14.0001C26.3572 7.76313 21.2828 2.68865 15.0458 2.68865V1.0459C18.506 1.0459 21.7592 2.39351 24.2058 4.84012C26.6524 7.28673 28 10.5399 28 14.0001Z" fill="white"/>
<path d="M1.64276 20.815H0V18.9861L1.64276 18.3838V20.815Z" fill="white"/>
<path d="M5.82641 20.815H4.18366V18.3838L5.82641 18.9861V20.815Z" fill="white"/>
<path d="M2.91321 13.1787C1.30687 13.1787 0 14.4856 0 16.0919V18.9861H5.82642V16.0919C5.82642 14.4856 4.51955 13.1787 2.91321 13.1787Z" fill="white"/>
</svg>
