<svg width="16" height="16" viewBox="0 0 16 16" fill="none" xmlns="http://www.w3.org/2000/svg">
<path d="M7.33401 14.6667C6.26249 14.6667 5.20676 14.4084 4.25627 13.9137C3.30578 13.4191 2.48853 12.7026 1.87376 11.8249C1.259 10.9473 0.864834 9.93445 0.724663 8.87214C0.584493 7.80984 0.702447 6.72939 1.06853 5.72235C1.43462 4.71532 2.03805 3.81136 2.8277 3.08707C3.61735 2.36277 4.56995 1.83949 5.60479 1.56155C6.63963 1.28361 7.72622 1.25921 8.7725 1.49041C9.81877 1.72161 10.7939 2.2016 11.6153 2.88971C11.6836 2.94557 11.7401 3.01444 11.7816 3.09233C11.8231 3.17021 11.8487 3.25556 11.857 3.34342C11.8653 3.43128 11.856 3.51991 11.8297 3.60416C11.8035 3.68841 11.7607 3.76661 11.704 3.83423C11.6473 3.90184 11.5777 3.95752 11.4993 3.99804C11.4209 4.03855 11.3353 4.0631 11.2473 4.07026C11.1594 4.07742 11.0709 4.06704 10.9869 4.03973C10.903 4.01243 10.8254 3.96873 10.7585 3.91117C9.84259 3.14459 8.69589 2.70766 7.50212 2.67038C6.30835 2.63311 5.13662 2.99765 4.1747 3.70559C3.21278 4.41354 2.51635 5.4239 2.19702 6.57478C1.87769 7.72565 1.95395 8.9504 2.41357 10.0528C2.87318 11.1552 3.68955 12.0713 4.73186 12.6545C5.77417 13.2377 6.98207 13.454 8.16199 13.269C9.34192 13.0839 10.4256 12.5081 11.2393 11.6338C12.053 10.7596 12.5497 9.63746 12.6497 8.44731C12.656 8.3597 12.6797 8.27422 12.7194 8.19589C12.7592 8.11757 12.8142 8.04798 12.8812 7.99121C12.9482 7.93443 13.0259 7.89163 13.1097 7.8653C13.1935 7.83898 13.2817 7.82966 13.3691 7.83791C13.4564 7.84516 13.5413 7.86952 13.6191 7.90961C13.6969 7.94969 13.766 8.0047 13.8225 8.07151C13.8791 8.13831 13.9219 8.2156 13.9485 8.29895C13.9752 8.38231 13.9852 8.4701 13.9779 8.55731C13.8304 10.2202 13.0675 11.7682 11.8386 12.8982C10.6098 14.0282 9.00342 14.6588 7.33401 14.6667ZM8.83661 10.1055L15.138 3.80471C15.2017 3.74321 15.2525 3.66965 15.2874 3.58831C15.3223 3.50697 15.3407 3.41949 15.3415 3.33097C15.3423 3.24246 15.3254 3.15467 15.2919 3.07274C15.2584 2.99081 15.2089 2.91637 15.1463 2.85378C15.0837 2.79118 15.0092 2.74168 14.9273 2.70816C14.8454 2.67464 14.7576 2.65777 14.6691 2.65854C14.5806 2.65931 14.4931 2.6777 14.4117 2.71264C14.3304 2.74758 14.2568 2.79837 14.1953 2.86204L7.89387 9.16277C7.82863 9.22874 7.7502 9.28018 7.6637 9.31372C7.5772 9.34727 7.48459 9.36217 7.39194 9.35744C7.30252 9.3545 7.21467 9.33312 7.1339 9.29464C7.05313 9.25616 6.98117 9.20142 6.92254 9.13384L5.19074 6.92224C5.08087 6.78555 4.92156 6.69765 4.74734 6.67761C4.57311 6.65756 4.398 6.70696 4.25995 6.81513C4.12191 6.92329 4.03204 7.08149 4.00982 7.25545C3.98761 7.42941 4.03484 7.60512 4.14127 7.74451L5.88541 9.97171C6.06352 10.185 6.28403 10.359 6.53296 10.4826C6.78189 10.6062 7.05379 10.6766 7.33141 10.6895C7.36136 10.6908 7.39129 10.6914 7.42121 10.6914C7.95197 10.6912 8.46097 10.4805 8.83661 10.1055Z" fill="white"/>
</svg>
