<svg width="13" height="12" viewBox="0 0 13 12" fill="none" xmlns="http://www.w3.org/2000/svg">
<g clip-path="url(#clip0_25_878)">
<path d="M6.80126 5.79517L9.5017 9.65776H8.39343L6.18982 6.50588V6.50568L5.86629 6.04299L3.29211 2.36084H4.40038L6.47774 5.33248L6.80126 5.79517Z" fill="white"/>
<path d="M11.1034 0H1.69662C0.980532 0 0.399994 0.580538 0.399994 1.29663V10.7034C0.399994 11.4195 0.980532 12 1.69662 12H11.1034C11.8195 12 12.4 11.4195 12.4 10.7034V1.29663C12.4 0.580538 11.8195 0 11.1034 0ZM8.05398 10.1762L5.82405 6.93086L3.03217 10.1762H2.31061L5.50366 6.46474L2.31061 1.8176H4.74601L6.8576 4.89076L9.50131 1.8176H10.2229L7.17809 5.35697H7.17789L10.4894 10.1762H8.05398Z" fill="white"/>
</g>
<defs>
<clipPath id="clip0_25_878">
<rect width="12" height="12" fill="white" transform="translate(0.399994)"/>
</clipPath>
</defs>
</svg>
